<?xml version="1.0" encoding="UTF-8"?>
<svg id="Layer_1" data-name="Layer 1" xmlns="http://www.w3.org/2000/svg" xmlns:xlink="http://www.w3.org/1999/xlink" viewBox="0 0 296.55 81.69">
  <defs>
    <style>
      .cls-1 {
        fill: url(#linear-gradient);
      }

      .cls-1, .cls-2, .cls-3, .cls-4 {
        stroke-width: 0px;
      }

      .cls-2 {
        fill: url(#linear-gradient-2);
      }

      .cls-3 {
        fill: url(#linear-gradient-3);
      }

      .cls-4 {
        fill: #fff;
      }
    </style>
    <linearGradient id="linear-gradient" x1="91.87" y1="-1254" x2="131.15" y2="-1254" gradientTransform="translate(0 -1226.43) scale(1 -1)" gradientUnits="userSpaceOnUse">
      <stop offset="0" stop-color="#73caea"/>
      <stop offset="1" stop-color="#6283c5"/>
    </linearGradient>
    <linearGradient id="linear-gradient-2" x1="0" y1="-1227.21" x2="296.51" y2="-1227.21" xlink:href="#linear-gradient"/>
    <linearGradient id="linear-gradient-3" x1="0" y1="-1283.87" x2="296.51" y2="-1283.87" xlink:href="#linear-gradient"/>
  </defs>
  <path class="cls-1" d="M122.38,38.89c1.16-1.8,2.04-3.71,2.68-5.87.76-2.52,1.12-4.83,1.12-7.07v-.52h-6.63l-.12,1.96c-.08,1.16-.24,2.48-.64,3.75-.32,1-.68,1.96-1.12,2.87l-10.02-10.38c-.6-.6-1.08-1.16-1.52-1.72-.36-.44-.6-.88-.8-1.28l-.12-.24c-.2-.36-.36-.84-.48-1.4-.08-.44-.16-.96-.16-1.48,0-.6.08-1.12.28-1.68.2-.6.44-1,.8-1.36.44-.44.88-.76,1.4-1,.48-.24,1.12-.32,1.88-.32.68,0,1.12.08,1.48.24.48.2.8.4,1.12.68s.56.6.84,1.04.48.84.64,1.32l.56,1.72,2.44-.56,4.15-.84-.04-.48c-.12-1.44-.44-2.52-.96-3.51-.6-1.16-1.36-2.16-2.24-2.99s-2.04-1.52-3.47-2.08c-1.28-.52-2.76-.76-4.47-.76-1.84,0-3.47.28-4.91.88-1.52.6-2.76,1.36-3.75,2.32-1.04,1-1.8,2.08-2.32,3.39-.48,1.2-.76,2.64-.76,4.15,0,1.36.24,2.68.68,4.07.4,1.2,1,2.4,1.84,3.63-1,.52-1.96,1.12-2.8,1.76-1.04.8-1.92,1.72-2.68,2.68-.72.96-1.32,2.04-1.72,3.23s-.64,2.48-.64,3.67c0,1.88.36,3.47,1.12,4.95.72,1.44,1.68,2.68,2.91,3.75,1.24,1.08,3.95,2.72,8.74,2.72,2.64,0,5.11.04,7.27-.76,2.08-.8,3.91-1.92,5.59-3.19l3.63,3.71c.16.16.4.28.64.28h9.42l-8.86-9.3h0ZM110.16,41.37c-1.2.44-2.64.68-4.19.68-.96,0-1.76-.12-2.36-.4-.84-.36-1.44-.72-1.96-1.16-.56-.48-1-1.16-1.28-1.88h0c-.32-.76-.44-1.6-.44-2.48,0-1.28.08-2,.68-3.11.6-1.08,1.72-2.48,2.87-3.27l9.7,9.98c-1.08.72-2.08,1.28-3.03,1.64h0Z"/>
  <polygon class="cls-2" points="82.65 0 79.38 0 0 0 0 1.56 79.38 1.56 82.65 1.56 296.51 1.56 296.51 0 82.65 0"/>
  <polygon class="cls-3" points="82.65 56.66 79.38 56.66 0 56.66 0 58.22 79.38 58.22 82.65 58.22 296.51 58.22 296.51 56.66 82.65 56.66"/>
  <path class="cls-4" d="M184.27,48.51c-3.87,0-6.99-1.24-9.3-3.71s-3.43-5.67-3.43-9.5v-1c0-3.99,1.12-7.27,3.27-9.86,2.2-2.6,5.15-3.87,8.82-3.83,3.63,0,6.43,1.08,8.42,3.27s2.99,5.15,2.99,8.86v2.8c0,.64-.52,1.16-1.16,1.16h-14.89l-.04.16c.12,1.76.72,3.23,1.8,4.39,1.04,1.16,2.48,1.72,4.27,1.72,1.6,0,2.95-.16,3.99-.48,1.08-.32,2.24-.84,3.47-1.52l1.96,4.47c-1.12.88-2.56,1.6-4.31,2.2-1.72.56-3.67.88-5.87.88h0ZM183.63,26.19c-1.36,0-2.4.52-3.19,1.56s-1.24,2.4-1.44,4.03l.08.12h8.9v-.64c0-1.56-.36-2.76-1.08-3.67-.72-.92-1.8-1.4-3.27-1.4h0Z"/>
  <path class="cls-4" d="M215.3,47.99c-.2-.44-.36-.92-.52-1.4-.16-.48-.28-.96-.36-1.44-.88,1-1.92,1.8-3.15,2.4-1.24.6-2.64.92-4.23.92-2.64,0-4.71-.72-6.27-2.16s-2.32-3.39-2.32-5.83,1-4.47,3.03-5.83,4.99-2.08,8.9-2.08h3.71v-2.64c0-1.28-.36-2.28-1.12-2.99s-1.84-1.08-3.31-1.08c-.84,0-1.56.08-2.2.28s-1.16.44-1.56.68l-.32,1.92c-.08.56-.6,1-1.16,1h-4.47l.04-5.95c1.32-.88,2.83-1.64,4.55-2.28,1.72-.6,3.59-.92,5.59-.92,3.31,0,6.03.8,8.11,2.44,2.08,1.64,3.11,3.95,3.11,6.95v12.26c0,.36.04.72.08,1.04l2.2.32v4.35l-8.35.04h0ZM208.99,43.12c1.08,0,2.08-.24,2.99-.72.88-.48,1.6-1.08,2.08-1.8v-4.11h-3.71c-1.56,0-2.72.36-3.51,1.08-.8.72-1.2,1.6-1.2,2.6,0,.92.28,1.64.88,2.16.64.56,1.44.8,2.48.8h0Z"/>
  <path class="cls-4" d="M227.99,12.5v-3.43h11.22v33.9l2.6.56c.52.12.92.6.92,1.16v3.43h-14.37v-3.43c0-.56.4-1.04.92-1.16l2.6-.56V14.25l-2.95-.56c-.52-.12-.92-.64-.92-1.2h0Z"/>
  <path class="cls-4" d="M256.14,14.45v6.51h4.67v5.03h-4.67v13.58c0,1.04.2,1.76.64,2.24.44.44,1,.68,1.72.68.48,0,.92,0,1.28-.08.36-.04.8-.12,1.24-.2l.6,5.19c-.8.24-1.6.44-2.4.56s-1.64.2-2.56.2c-2.48,0-4.39-.68-5.71-2.04s-2-3.51-2-6.47v-13.58h-3.91v-4.35l3.91-.76,1.36-5.63c.12-.52.6-.88,1.12-.88h4.71Z"/>
  <path class="cls-4" d="M266.08,43.52l2.72-.56V14.21l-3.07-.56c-.56-.12-.92-.6-.92-1.12v-3.43h11.46v15.41c.88-1.24,1.96-2.24,3.19-2.91,1.28-.68,2.68-1.04,4.19-1.04,2.91,0,5.19.96,6.83,2.8,1.64,1.88,2.48,4.75,2.48,8.7v10.94l2.68.56c.52.12.92.6.92,1.12v3.43h-14.29v-3.47c0-.52.36-1,.88-1.12l2.36-.56v-10.98c0-2.12-.4-3.59-1.16-4.47s-1.88-1.32-3.39-1.32c-1.04,0-1.96.2-2.72.56-.8.36-1.44.88-1.96,1.56v14.65l2.36.56c.52.12.88.6.88,1.12v3.47h-14.29v-3.43c-.04-.56.32-1.04.88-1.16h0Z"/>
  <path class="cls-4" d="M137.19,43.52l2.72-.56V14.21l-3.07-.56c-.56-.12-.96-.6-.96-1.12v-3.43h11.46v15.41c.88-1.24,1.96-2.24,3.19-2.91,1.28-.68,2.68-1.04,4.19-1.04,2.91,0,5.19.96,6.83,2.8,1.64,1.88,2.48,4.75,2.48,8.7v10.94l2.68.56c.52.12.92.6.92,1.12v3.43h-14.25v-3.47c0-.52.36-1,.88-1.12l2.36-.56v-10.98c0-2.12-.4-3.59-1.16-4.47s-1.88-1.32-3.39-1.32c-1.04,0-1.96.2-2.72.56-.8.36-1.44.88-1.96,1.56v14.65l2.36.56c.52.12.88.6.88,1.12v3.47h-14.33v-3.43c0-.56.4-1.04.92-1.16h0Z"/>
  <path class="cls-4" d="M0,12.7v-3.63h15.73v3.63c0,.56-.4,1.04-.96,1.16l-3.11.6v28.31l3.11.6c.56.12.96.6.96,1.16v3.59H0v-3.59c0-.56.4-1.04.96-1.16l3.11-.6V14.45l-3.11-.6c-.56-.12-.96-.6-.96-1.16h0Z"/>
  <path class="cls-4" d="M50.83,22.6h-4.71c-.6,0-1.08-.44-1.16-1l-.64-4.11c-.76-.76-1.72-1.36-2.87-1.8s-2.52-.64-4.07-.64c-3.35,0-5.91,1.2-7.71,3.63s-2.72,5.59-2.72,9.5v1.36c0,3.91.88,7.07,2.68,9.54,1.8,2.44,4.31,3.67,7.59,3.67,1.52,0,2.91-.2,4.15-.64s2.24-1.04,2.91-1.8l.64-4.11c.08-.56.6-1,1.16-1h4.71v7.59c-1.56,1.8-3.51,3.23-5.91,4.27-2.4,1.08-5.07,1.6-8.07,1.6-5.15,0-9.38-1.8-12.66-5.35s-4.95-8.15-4.95-13.74v-1.28c0-5.59,1.64-10.14,4.91-13.74s7.51-5.39,12.7-5.39c2.95,0,5.67.56,8.03,1.64,2.4,1.08,4.35,2.52,5.95,4.27l.04,7.51h0Z"/>
  <path class="cls-4" d="M88.2,9.06v10.1h-4.79c-.6,0-1.08-.44-1.12-1.04l-.24-3.19h-6.99v27.79l3.15.6c.52.12.92.56.92,1.12v3.63h-15.73v-3.63c0-.56.4-1,.92-1.12l3.15-.6V14.93h-6.95l-.24,3.19c-.04.6-.52,1.04-1.12,1.04h-4.75v-10.1h33.78Z"/>
  <path class="cls-4" d="M0,70.27v-.84h3.39v.84l-1.04.16v3.27h4.55v-3.27l-1.04-.16v-.84h3.39v.84l-1.04.16v7.43l1.04.16v.8h-3.39v-.8l1.04-.16v-3.15H2.36v3.15l1.04.16v.8H0v-.8l1.04-.16v-7.43l-1.04-.16Z"/>
  <path class="cls-4" d="M13.5,79.02c-.96,0-1.76-.32-2.32-.96-.56-.64-.88-1.48-.88-2.52v-.28c0-1,.28-1.84.88-2.48.6-.64,1.28-1,2.12-1,.96,0,1.68.28,2.16.84.48.56.72,1.32.72,2.28v.8h-4.55v.04c0,.68.2,1.24.52,1.68.32.44.8.64,1.36.64.44,0,.8-.08,1.12-.2s.6-.28.84-.52l.48.84c-.24.24-.6.44-1,.6-.36.12-.84.2-1.44.24h0ZM13.3,72.75c-.44,0-.8.16-1.08.56-.32.36-.48.8-.56,1.36v.04h3.23v-.16c0-.48-.12-.92-.4-1.24s-.68-.56-1.2-.56h0Z"/>
  <path class="cls-4" d="M19.64,70.15v1.68h1.32v.96h-1.32v4.23c0,.32.08.56.2.68s.32.2.52.2c.12,0,.24,0,.4-.04.12-.04.24-.04.36-.08l.16.88c-.12.08-.32.16-.52.2-.24.04-.48.08-.72.08-.52,0-.92-.16-1.24-.48s-.48-.8-.48-1.48v-4.23h-1.12v-.96h1.12v-1.68l1.32.04h0Z"/>
  <path class="cls-4" d="M25.59,75.31c0-1.04.28-1.88.84-2.56.56-.68,1.32-1,2.28-1s1.72.32,2.28,1,.84,1.52.84,2.56v.16c0,1.04-.28,1.92-.84,2.56s-1.32,1-2.28,1-1.76-.32-2.32-1c-.56-.68-.84-1.52-.84-2.56l.04-.16h0ZM26.87,75.43c0,.76.16,1.36.48,1.84s.76.72,1.4.72,1.08-.24,1.36-.72.48-1.12.48-1.84v-.16c0-.72-.16-1.36-.48-1.84-.32-.48-.76-.72-1.4-.72-.6,0-1.08.24-1.4.72s-.48,1.12-.48,1.84l.04.16h0Z"/>
  <path class="cls-4" d="M32.9,72.79v-.96h1.08v-.88c0-.76.2-1.32.6-1.72s.96-.6,1.64-.6c.16,0,.28,0,.44.04.16.04.32.04.48.08l-.16.96c-.08,0-.16-.04-.28-.04s-.24-.04-.36-.04c-.36,0-.64.12-.84.32-.16.24-.28.56-.28.96v.88h1.48v.96h-1.48v5.07l1.04.16v.8h-3.39v-.8l1.04-.16v-5.07h-1v.04Z"/>
  <path class="cls-4" d="M37.45,72.79v-.96h1.08v-.76c0-.8.24-1.4.68-1.84.48-.44,1.12-.64,1.92-.64.28,0,.56.04.84.12.28.08.6.16,1,.28l-.2,1.04c-.24-.08-.48-.16-.72-.24-.28-.08-.52-.08-.8-.08-.52,0-.88.12-1.12.32s-.32.56-.32,1.04v.76h3.99v6.03l1.04.16v.8h-3.39v-.8l1.04-.16v-5.07h-2.72v5.07l1.04.16v.8h-3.39v-.8l1.04-.16v-5.07h-1Z"/>
  <path class="cls-4" d="M48.91,78.02c.44,0,.8-.12,1.12-.4s.48-.6.48-.96h1.16v.04c.04.6-.24,1.16-.8,1.6-.56.48-1.2.72-1.96.72-1.04,0-1.8-.32-2.32-1-.56-.68-.8-1.52-.8-2.52v-.28c0-1,.28-1.84.8-2.48.56-.68,1.32-1,2.32-1,.56,0,1.08.08,1.52.28s.8.44,1.12.76l.04,1.56h-1.04l-.28-1.12c-.16-.16-.36-.28-.6-.36s-.52-.12-.8-.12c-.68,0-1.16.24-1.44.72-.28.48-.44,1.08-.44,1.76v.28c0,.72.16,1.32.44,1.8.32.48.8.72,1.48.72h0Z"/>
  <path class="cls-4" d="M52.91,78.06l1.04-.16v-4.99l-1.04-.16v-.84h2.32v6.03l1.04.16v.8h-3.39v-.84h.04ZM55.22,70.07h-1.28v-1.32h1.28v1.32Z"/>
  <path class="cls-4" d="M60.45,79.02c-.96,0-1.76-.32-2.32-.96-.56-.64-.88-1.48-.88-2.52v-.28c0-1,.28-1.84.88-2.48.6-.64,1.28-1,2.12-1,.96,0,1.64.28,2.16.84.48.56.72,1.32.72,2.28v.8h-4.55l-.04.04c0,.68.2,1.24.52,1.68.32.44.8.64,1.36.64.44,0,.8-.08,1.16-.2.32-.12.6-.28.84-.52l.48.84c-.24.24-.6.44-1,.6-.36.12-.88.2-1.44.24h0ZM59.33,70.59h-1.4v-1.28h1.4v1.28ZM60.25,72.75c-.44,0-.8.16-1.08.56-.32.36-.48.8-.56,1.36v.04h3.23v-.16c0-.48-.12-.92-.4-1.24-.28-.4-.68-.56-1.2-.56h0ZM62.37,70.59h-1.4v-1.28h1.4v1.28Z"/>
  <path class="cls-4" d="M64.21,69.6v-.84h2.32v9.1l1.04.16v.8h-3.39v-.8l1.04-.16v-8.11l-1-.16h0Z"/>
  <path class="cls-4" d="M71.75,79.02c-.96,0-1.76-.32-2.32-.96-.56-.64-.88-1.48-.88-2.52v-.28c0-1,.28-1.84.88-2.48.6-.64,1.28-1,2.12-1,.96,0,1.64.28,2.16.84.48.56.72,1.32.72,2.28v.8h-4.55l-.04.04c0,.68.2,1.24.52,1.68.32.44.8.64,1.36.64.44,0,.8-.08,1.16-.2.32-.12.6-.28.84-.52l.48.84c-.24.24-.6.44-1,.6-.36.12-.84.2-1.44.24h0ZM71.55,72.75c-.44,0-.8.16-1.08.56-.32.36-.48.8-.56,1.36v.04h3.23v-.16c0-.48-.12-.92-.4-1.24-.28-.4-.68-.56-1.2-.56h0Z"/>
  <path class="cls-4" d="M78.82,69.6v-.84h2.32v5.87h.8l1.52-1.84-.64-.08v-.84h2.91v.84l-.84.12-1.84,2.2,2.24,2.83.8.16v.8h-2.91v-.8l.64-.08-1.84-2.32h-.84v2.24l1.04.16v.8h-3.39v-.8l1.04-.16v-8.11l-1-.16h0Z"/>
  <path class="cls-4" d="M90.12,79.02c-.96,0-1.76-.32-2.32-.96-.56-.64-.88-1.48-.88-2.52v-.28c0-1,.28-1.84.88-2.48.6-.64,1.28-1,2.12-1,.96,0,1.64.28,2.16.84.48.56.72,1.32.72,2.28v.8h-4.55l-.04.04c0,.68.2,1.24.52,1.68.32.44.8.64,1.36.64.44,0,.8-.08,1.16-.2.32-.12.6-.28.84-.52l.48.84c-.24.24-.6.44-1,.6-.36.12-.88.2-1.44.24h0ZM89.92,72.75c-.44,0-.8.16-1.08.56-.32.36-.48.8-.56,1.36v.04h3.23v-.16c0-.48-.12-.92-.4-1.24s-.68-.56-1.2-.56h0Z"/>
  <path class="cls-4" d="M93.83,78.06l1.04-.16v-4.99l-1.04-.16v-.84h2.2l.08,1.04c.24-.36.52-.64.88-.88.36-.2.76-.32,1.2-.32.76,0,1.36.24,1.76.68.4.44.64,1.12.64,2.04v3.43l1.04.16v.8h-3.39v-.8l1.04-.16v-3.39c0-.64-.12-1.04-.36-1.32s-.6-.4-1.12-.4c-.36,0-.68.08-.96.28s-.52.44-.68.72v4.11l1.04.16v.8h-3.39l.04-.8h0Z"/>
  <path class="cls-4" d="M102.38,78.06l1.04-.16v-4.99l-1.04-.16v-.84h2.2l.08,1.04c.24-.36.52-.64.88-.88.36-.2.76-.32,1.2-.32.76,0,1.36.24,1.76.68s.64,1.12.64,2.04v3.43l1.04.16v.8h-3.39v-.8l1.04-.16v-3.39c0-.64-.12-1.04-.36-1.32-.24-.24-.6-.4-1.12-.4-.36,0-.68.08-.96.28s-.52.44-.68.72v4.11l1.04.16v.8h-3.39l.04-.8h0Z"/>
  <path class="cls-4" d="M111.08,78.06l1.04-.16v-4.99l-1.04-.16v-.84h2.32v6.03l1.04.16v.8h-3.39v-.84h.04ZM113.44,70.07h-1.28v-1.32h1.28s0,1.32,0,1.32Z"/>
  <path class="cls-4" d="M120.82,74.07h-.96l-.2-.84c-.16-.16-.36-.28-.6-.36s-.52-.12-.8-.12c-.44,0-.8.08-1,.32s-.32.44-.32.72.08.48.28.64c.2.16.6.32,1.2.44.88.2,1.56.44,2,.76.44.32.64.76.64,1.32,0,.64-.24,1.12-.76,1.52-.52.4-1.16.56-1.96.56-.52,0-1-.08-1.44-.2s-.8-.32-1.12-.52v-1.6h.96l.24.96c.16.12.36.24.6.28.24.04.52.08.76.08.44,0,.8-.08,1.08-.28.24-.2.4-.44.4-.72s-.12-.52-.32-.68-.6-.36-1.2-.48c-.84-.2-1.48-.44-1.92-.76-.44-.32-.64-.76-.64-1.28s.24-1.04.72-1.44,1.12-.6,1.88-.6c.52,0,1,.08,1.44.2s.76.32,1.04.56v1.52h0Z"/>
  <path class="cls-4" d="M122.06,80.74l1.04-.16v-7.71l-1.04-.16v-.84h2.16l.12.84c.24-.32.52-.56.84-.72.32-.16.72-.24,1.16-.24.88,0,1.56.36,2.04,1.04.48.68.72,1.6.72,2.72v.12c0,1-.24,1.84-.72,2.44-.48.64-1.16.92-2,.92-.44,0-.8-.08-1.16-.24-.32-.16-.6-.36-.84-.64v2.44l1.04.16v.84h-3.39l.04-.8h0ZM127.81,75.51c0-.8-.16-1.44-.48-1.96-.32-.52-.76-.76-1.4-.76-.36,0-.68.08-.92.24s-.48.4-.64.68v3.39c.16.28.36.52.64.68.24.16.56.24.96.24.6,0,1.08-.24,1.36-.64.32-.44.48-1,.48-1.72v-.16h0Z"/>
  <path class="cls-4" d="M130.01,69.6v-.84h2.32v9.1l1.04.16v.8h-3.35v-.8l1.04-.16v-8.11l-1.04-.16h0Z"/>
  <path class="cls-4" d="M138.91,78.86c-.04-.2-.08-.36-.08-.52s-.04-.32-.04-.44c-.24.32-.56.56-.92.8-.36.2-.76.32-1.2.32-.72,0-1.28-.16-1.68-.52-.4-.36-.56-.84-.56-1.52s.28-1.16.8-1.56c.52-.36,1.28-.56,2.2-.56h1.36v-.8c0-.4-.12-.72-.4-.96-.24-.24-.6-.36-1.08-.36-.32,0-.6.04-.84.12s-.44.2-.6.32l-.12.76h-1v-1.36c.32-.24.72-.44,1.16-.6s.96-.24,1.48-.24c.8,0,1.44.2,1.92.6s.76,1,.76,1.76v3.87l.52.08v.8h-1.68ZM136.88,77.94c.44,0,.8-.08,1.16-.32.36-.2.6-.44.76-.72v-1.16h-1.36c-.52,0-.92.12-1.24.36-.32.24-.44.52-.44.88,0,.32.08.56.28.72.16.16.44.24.84.24Z"/>
  <path class="cls-4" d="M143.86,70.15v1.68h1.32v.96h-1.32v4.23c0,.32.08.56.2.68s.32.2.56.2c.12,0,.24,0,.4-.04s.24-.04.36-.08l.16.88c-.12.08-.32.16-.52.2s-.48.08-.72.08c-.52,0-.92-.16-1.24-.48-.32-.32-.44-.8-.44-1.48v-4.23h-1.12v-.96h1.12v-1.68l1.24.04h0Z"/>
  <path class="cls-4" d="M146.38,72.79v-.96h1.08v-.88c0-.76.2-1.32.6-1.72s.96-.6,1.64-.6c.16,0,.28,0,.44.04s.32.04.48.08l-.16.96c-.08,0-.16-.04-.28-.04s-.24-.04-.36-.04c-.36,0-.64.12-.84.32-.2.24-.28.56-.28.96v.88h1.48v.96h-1.4v5.07l1.04.16v.8h-3.39v-.8l1.04-.16v-5.07h-1.08v.04Z"/>
  <path class="cls-4" d="M151.25,75.31c0-1.04.28-1.88.84-2.56s1.32-1,2.28-1,1.72.32,2.28,1c.56.68.84,1.52.84,2.56v.16c0,1.04-.28,1.92-.84,2.56-.56.68-1.32,1-2.28,1s-1.76-.32-2.32-1-.84-1.52-.84-2.56l.04-.16h0ZM152.49,75.43c0,.76.16,1.36.48,1.84s.8.72,1.4.72,1.08-.24,1.4-.72.48-1.12.48-1.84v-.16c0-.72-.16-1.36-.48-1.84s-.8-.72-1.4-.72-1.08.24-1.4.72-.48,1.12-.48,1.84v.16h0Z"/>
  <path class="cls-4" d="M158.68,72.67v-.84h2.2l.12,1.04c.2-.36.44-.64.72-.84.28-.2.64-.32,1-.32.08,0,.2,0,.32.04.12,0,.2.04.24.04l-.16,1.2-.72-.04c-.32,0-.6.08-.84.24s-.4.36-.52.68v4.03l1.04.16v.8h-3.39v-.8l1.04-.16v-4.99l-1.04-.24h0Z"/>
  <path class="cls-4" d="M163.91,78.06l1.04-.16v-4.99l-1.04-.16v-.84h2.2l.08.92c.24-.32.52-.6.88-.76s.76-.28,1.24-.28.88.12,1.2.32.6.56.76.96c.2-.4.52-.72.88-.96.36-.24.8-.36,1.28-.36.72,0,1.28.24,1.68.72s.64,1.24.64,2.2v3.19l1.04.16v.8h-3.39v-.8l1.04-.16v-3.19c0-.68-.12-1.16-.36-1.48s-.6-.44-1.04-.44-.8.16-1.08.48-.44.72-.48,1.2v3.43l1.04.16v.8h-3.39v-.8l1.04-.16v-3.19c0-.64-.12-1.16-.36-1.44-.24-.32-.6-.44-1.04-.44-.4,0-.72.08-.96.24s-.44.4-.56.68v4.19l1.04.16v.8h-3.39l.04-.8h0Z"/>
  <path class="cls-4" d="M182.35,72.67l-.84.12,1.44,3.99.12.52h.04l.12-.52,1.4-3.99-.84-.12v-.84h2.72v.84l-.56.08-2.36,6.07h-.96l-2.4-6.07-.56-.08v-.84h2.72l-.04.84h0Z"/>
  <path class="cls-4" d="M187.27,75.31c0-1.04.28-1.88.84-2.56.56-.68,1.32-1,2.28-1s1.72.32,2.28,1,.84,1.52.84,2.56v.16c0,1.04-.28,1.92-.84,2.56-.56.68-1.32,1-2.28,1s-1.76-.32-2.32-1c-.56-.68-.84-1.52-.84-2.56l.04-.16h0ZM188.54,75.43c0,.76.16,1.36.48,1.84s.8.72,1.4.72,1.08-.24,1.4-.72.48-1.12.48-1.84v-.16c0-.72-.16-1.36-.48-1.84s-.8-.72-1.4-.72-1.08.24-1.4.72-.48,1.12-.48,1.84v.16h0Z"/>
  <path class="cls-4" d="M194.73,75.31c0-1.04.28-1.88.84-2.56.56-.68,1.32-1,2.28-1s1.72.32,2.28,1,.84,1.52.84,2.56v.16c0,1.04-.28,1.92-.84,2.56-.56.68-1.32,1-2.28,1s-1.76-.32-2.32-1c-.56-.68-.84-1.52-.84-2.56l.04-.16h0ZM195.97,75.43c0,.76.16,1.36.48,1.84s.8.72,1.4.72,1.08-.24,1.4-.72.48-1.12.48-1.84v-.16c0-.72-.16-1.36-.48-1.84s-.8-.72-1.4-.72-1.08.24-1.4.72-.48,1.12-.48,1.84v.16h0Z"/>
  <path class="cls-4" d="M202.16,72.67v-.84h2.2l.12,1.04c.2-.36.44-.64.72-.84s.64-.32,1-.32c.08,0,.2,0,.32.04.12,0,.2.04.24.04l-.16,1.2-.72-.04c-.32,0-.6.08-.84.24s-.4.36-.52.68v4.03l1.04.16v.8h-3.39v-.8l1.04-.16v-4.99l-1.04-.24h0Z"/>
  <path class="cls-4" d="M212.58,77.86h2.87l.12-1.08h1.08v2.08h-5.59v-.88l3.79-5.11h-2.56l-.08,1.08h-1.08v-2.08h5.31v.88l-3.87,5.11h0Z"/>
  <path class="cls-4" d="M217.85,75.31c0-1.04.28-1.88.84-2.56s1.32-1,2.28-1,1.72.32,2.28,1c.56.68.84,1.52.84,2.56v.16c0,1.04-.28,1.92-.84,2.56s-1.32,1-2.28,1-1.72-.32-2.32-1c-.56-.68-.84-1.52-.84-2.56l.04-.16h0ZM219.13,75.43c0,.76.16,1.36.48,1.84.32.48.8.72,1.4.72s1.08-.24,1.4-.72.48-1.12.48-1.84v-.16c0-.72-.16-1.36-.48-1.84s-.8-.72-1.4-.72-1.08.24-1.4.72-.48,1.12-.48,1.84v.16h0Z"/>
  <path class="cls-4" d="M225.28,72.67v-.84h2.2l.12,1.04c.2-.36.44-.64.72-.84.28-.2.64-.32,1-.32.08,0,.2,0,.32.04.12,0,.2.04.24.04l-.16,1.2-.72-.04c-.32,0-.6.08-.84.24s-.4.36-.52.68v4.03l1.04.16v.8h-3.39v-.8l1.04-.16v-4.99l-1.04-.24h0Z"/>
  <path class="cls-4" d="M230.63,75.51c0-1.12.24-2.04.72-2.72s1.16-1.04,2.04-1.04c.44,0,.84.08,1.16.24s.6.44.84.76l.12-.88h1.08v6.91c0,.92-.24,1.64-.76,2.16-.52.52-1.24.76-2.16.76-.32,0-.72-.04-1.08-.16s-.72-.24-1.04-.36l.32-1c.24.12.52.24.84.32.32.08.64.12.96.12.56,0,1-.16,1.24-.48.28-.32.4-.76.4-1.36v-.68c-.24.28-.52.52-.84.68s-.68.24-1.12.24c-.88,0-1.52-.32-2.04-.92-.48-.64-.72-1.44-.72-2.44l.04-.16h0ZM231.91,75.62c0,.72.16,1.28.44,1.68s.76.64,1.36.64c.4,0,.72-.08.96-.24.28-.16.48-.44.64-.76v-3.23c-.16-.32-.4-.52-.64-.72-.28-.16-.6-.28-.96-.28-.6,0-1.08.24-1.36.76-.32.52-.44,1.16-.44,1.96v.2h0Z"/>
  <path class="cls-4" d="M238.13,78.06l1.04-.16v-4.99l-1.04-.16v-.84h2.32v6.03l1.04.16v.8h-3.39l.04-.84h0ZM240.49,70.07h-1.28v-1.32h1.28v1.32Z"/>
  <path class="cls-4" d="M242.33,78.06l1.04-.16v-4.99l-1.04-.16v-.84h2.2l.08,1.04c.24-.36.52-.64.88-.88.36-.2.76-.32,1.2-.32.76,0,1.36.24,1.76.68s.64,1.12.64,2.04v3.43l1.04.16v.8h-3.39v-.8l1.04-.16v-3.39c0-.64-.12-1.04-.36-1.32s-.6-.4-1.12-.4c-.36,0-.68.08-.96.28s-.52.44-.68.72v4.11l1.04.16v.8h-3.39l.04-.8h0Z"/>
  <path class="cls-4" d="M250.83,78.06l1.04-.16v-4.99l-1.04-.16v-.84h2.2l.08,1.04c.24-.36.52-.64.88-.88.36-.2.76-.32,1.2-.32.76,0,1.36.24,1.76.68.4.44.64,1.12.64,2.04v3.43l1.04.16v.8h-3.39v-.8l1.04-.16v-3.39c0-.64-.12-1.04-.36-1.32s-.6-.4-1.12-.4c-.36,0-.68.08-.96.28s-.52.44-.68.72v4.11l1.04.16v.8h-3.39l.04-.8h0Z"/>
  <path class="cls-4" d="M259.5,75.31c0-1.04.28-1.88.84-2.56s1.32-1,2.28-1,1.72.32,2.28,1c.56.68.84,1.52.84,2.56v.16c0,1.04-.28,1.92-.84,2.56s-1.32,1-2.28,1-1.72-.32-2.32-1c-.56-.68-.84-1.52-.84-2.56l.04-.16h0ZM260.77,75.43c0,.76.16,1.36.48,1.84.32.48.8.72,1.4.72s1.08-.24,1.4-.72.48-1.12.48-1.84v-.16c0-.72-.16-1.36-.48-1.84s-.8-.72-1.4-.72-1.08.24-1.4.72-.48,1.12-.48,1.84v.16h0Z"/>
  <path class="cls-4" d="M269.24,72.67l-.84.12,1.44,3.99.12.52h.04l.12-.52,1.4-3.99-.84-.12v-.84h2.72v.84l-.56.08-2.36,6.07h-.96l-2.4-6.07-.56-.08v-.84h2.72l-.04.84h0Z"/>
  <path class="cls-4" d="M278.7,78.86c-.04-.2-.08-.36-.08-.52s-.04-.32-.04-.44c-.24.32-.56.56-.92.8-.36.2-.76.32-1.2.32-.72,0-1.28-.16-1.68-.52-.4-.36-.56-.84-.56-1.52s.28-1.16.8-1.56c.52-.36,1.28-.56,2.2-.56h1.32v-.8c0-.4-.12-.72-.4-.96-.28-.24-.6-.36-1.08-.36-.32,0-.6.04-.84.12s-.44.2-.6.32l-.12.76h-.96v-1.36c.32-.24.72-.44,1.16-.6s.96-.24,1.48-.24c.8,0,1.44.2,1.92.6.48.4.72,1,.72,1.76v3.87l.52.08v.8h-1.64ZM276.67,77.94c.44,0,.8-.08,1.16-.32.36-.2.6-.44.76-.72v-1.16h-1.36c-.52,0-.92.12-1.24.36-.32.24-.44.52-.44.88,0,.32.08.56.28.72.16.16.44.24.84.24Z"/>
  <path class="cls-4" d="M283.65,70.15v1.68h1.32v.96h-1.32v4.23c0,.32.08.56.2.68s.32.2.52.2c.12,0,.24,0,.4-.04.12-.04.24-.04.36-.08l.16.88c-.12.08-.32.16-.52.2-.24.04-.48.08-.72.08-.52,0-.92-.16-1.24-.48-.32-.32-.48-.8-.48-1.48v-4.23h-1.12v-.96h1.12v-1.68l1.32.04h0Z"/>
  <path class="cls-4" d="M286.29,78.06l1.04-.16v-4.99l-1.04-.16v-.84h2.32v6.03l1.04.16v.8h-3.39l.04-.84h0ZM288.64,70.07h-1.28v-1.32h1.28v1.32Z"/>
  <path class="cls-4" d="M293.83,79.02c-.96,0-1.76-.32-2.32-.96-.56-.64-.88-1.48-.88-2.52v-.28c0-1,.28-1.84.88-2.48.6-.64,1.28-1,2.12-1,.96,0,1.68.28,2.16.84.48.56.72,1.32.72,2.28v.8h-4.55v.04c0,.68.2,1.24.52,1.68.32.44.8.64,1.4.64.44,0,.8-.08,1.12-.2s.6-.28.84-.52l.48.84c-.24.24-.6.44-1,.6-.4.12-.88.2-1.48.24h0ZM293.68,72.75c-.44,0-.8.16-1.08.56-.32.36-.48.8-.56,1.36v.04h3.23v-.16c0-.48-.12-.92-.4-1.24-.28-.4-.68-.56-1.2-.56h0Z"/>
</svg>